<?xml version="1.0" encoding="UTF-8"?>
<svg id="Layer_1" data-name="Layer 1" xmlns="http://www.w3.org/2000/svg" viewBox="0 0 851.95 98.6">
  <defs>
    <style>
      .cls-1 {
        fill: #fff;
      }

      .cls-2 {
        fill: #787987;
      }

      .cls-3 {
        fill: #f1583e;
      }
    </style>
  </defs>
  <g>
    <polygon class="cls-3" points="407.75 64.8 422.15 64.8 414.95 77.3 407.75 89.8 400.55 77.3 393.35 64.8 407.75 64.8"/>
    <rect class="cls-1" x="164.45" y="8.8" width="56.4" height="15.1"/>
    <rect class="cls-1" x="164.45" y="41" width="56.4" height="15.1"/>
    <rect class="cls-1" x="164.45" y="74.7" width="56.4" height="15.1"/>
    <path class="cls-1" d="m236.05,15.3l17.3-6.4v65.7h37.4v15.3h-54.7V15.3Z"/>
    <path class="cls-1" d="m294.55,49.3c0-24.4,17.3-41.9,40.5-41.9,12.9,0,23.7,5.1,30.7,14.3l-11.1,11.1c-5-6.2-11.3-9.5-18.8-9.5-14,0-23.9,10.6-23.9,25.9s9.9,25.9,23.9,25.9c7.5,0,13.8-3.2,18.8-9.6l11.1,11.1c-7,9.4-17.8,14.5-30.8,14.5-23.2.1-40.4-17.4-40.4-41.8h0Z"/>
    <path class="cls-1" d="m603.25,8.9v81h-17.3v-33.2h-33.9v33.2h-17.3V8.9h17.3v31.9h33.9V8.9h17.3Z"/>
    <path class="cls-1" d="m616.25,49.3c0-24.1,17.3-41.9,40.9-41.9s40.9,17.7,40.9,41.9-17.4,41.9-40.9,41.9-40.9-17.8-40.9-41.9h0Zm64.2,0c0-15.4-10-25.9-23.4-25.9s-23.4,10.5-23.4,25.9,10,25.9,23.4,25.9,23.4-10.5,23.4-25.9Z"/>
    <path class="cls-1" d="m725.45,24.1h-23.9v-15.3h65.1v15.3h-23.9v65.7h-17.3V24.1h0Z"/>
    <path class="cls-1" d="m770.15,49.3c0-24.1,17.3-41.9,40.9-41.9s40.9,17.7,40.9,41.9-17.4,41.9-40.9,41.9-40.9-17.8-40.9-41.9Zm64.2,0c0-15.4-10-25.9-23.4-25.9s-23.4,10.5-23.4,25.9,10,25.9,23.4,25.9,23.4-10.5,23.4-25.9Z"/>
    <path class="cls-1" d="m490.05,8.8h-32.3v81h17.3V24.1h14c10.6,0,15.9,5.2,15.9,14.1s-5.3,14-15.9,14h-5.7v15.3h6.7c20,0,32.4-11.2,32.4-29.3s-12.4-29.4-32.4-29.4h0Z"/>
  </g>
  <polygon class="cls-1" points="416.45 8.85 399.35 8.85 366.15 89.75 383.85 89.75 390.45 72.45 407.85 27.15 425.15 72.45 431.75 89.75 449.85 89.75 416.45 8.85"/>
  <path class="cls-1" d="m114.59,98.6H30.79c-4.1,0-7.4-3.3-7.4-7.4V7.4c0-4.1,3.3-7.4,7.4-7.4h83.8c4.1,0,7.4,3.3,7.4,7.4v83.8c0,4.1-3.3,7.4-7.4,7.4Z"/>
  <g>
    <rect class="cls-2" x="46.89" y="12.2" width="27.2" height="13.8"/>
    <rect class="cls-3" x="46.89" y="41.7" width="38.9" height="13.8"/>
    <rect class="cls-2" x="46.89" y="72.6" width="51.6" height="13.8"/>
  </g>
  <rect class="cls-1" y="46.58" width="23.39" height="5.44"/>
  <rect class="cls-1" x="121.99" y="46.58" width="23.39" height="5.44"/>
</svg>