<?xml version="1.0" encoding="UTF-8"?>
<svg id="Layer_1" data-name="Layer 1" xmlns="http://www.w3.org/2000/svg" viewBox="0 0 825.98 95.59">
  <defs>
    <style>
      .cls-1 {
        fill: #fff;
      }

      .cls-2 {
        fill: #787987;
      }

      .cls-3 {
        fill: #f1583e;
      }
    </style>
  </defs>
  <g>
    <polygon class="cls-3" points="395.32 62.83 409.28 62.83 402.3 74.94 395.32 87.06 388.34 74.94 381.36 62.83 395.32 62.83"/>
    <rect class="cls-2" x="159.44" y="8.53" width="54.68" height="14.64"/>
    <rect class="cls-2" x="159.44" y="39.75" width="54.68" height="14.64"/>
    <rect class="cls-2" x="159.44" y="72.42" width="54.68" height="14.64"/>
    <path class="cls-2" d="m228.85,14.83l16.77-6.2v63.7h36.26v14.83h-53.03V14.83Z"/>
    <path class="cls-2" d="m285.57,47.8c0-23.66,16.77-40.62,39.27-40.62,12.51,0,22.98,4.94,29.76,13.86l-10.76,10.76c-4.85-6.01-10.96-9.21-18.23-9.21-13.57,0-23.17,10.28-23.17,25.11s9.6,25.11,23.17,25.11c7.27,0,13.38-3.1,18.23-9.31l10.76,10.76c-6.79,9.11-17.26,14.06-29.86,14.06-22.49.1-39.17-16.87-39.17-40.53h0Z"/>
    <path class="cls-2" d="m584.86,8.63v78.53h-16.77v-32.19h-32.87v32.19h-16.77V8.63h16.77v30.93h32.87V8.63h16.77Z"/>
    <path class="cls-2" d="m597.47,47.8c0-23.37,16.77-40.62,39.65-40.62s39.65,17.16,39.65,40.62-16.87,40.62-39.65,40.62-39.65-17.26-39.65-40.62h0Zm62.24,0c0-14.93-9.7-25.11-22.69-25.11s-22.69,10.18-22.69,25.11,9.7,25.11,22.69,25.11,22.69-10.18,22.69-25.11Z"/>
    <path class="cls-2" d="m703.34,23.37h-23.17v-14.83h63.12v14.83h-23.17v63.7h-16.77V23.37h0Z"/>
    <path class="cls-2" d="m746.68,47.8c0-23.37,16.77-40.62,39.65-40.62s39.65,17.16,39.65,40.62-16.87,40.62-39.65,40.62-39.65-17.26-39.65-40.62Zm62.24,0c0-14.93-9.7-25.11-22.69-25.11s-22.69,10.18-22.69,25.11,9.7,25.11,22.69,25.11,22.69-10.18,22.69-25.11Z"/>
    <path class="cls-2" d="m475.11,8.53h-31.32v78.53h16.77V23.37h13.57c10.28,0,15.42,5.04,15.42,13.67s-5.14,13.57-15.42,13.57h-5.53v14.83h6.5c19.39,0,31.41-10.86,31.41-28.41s-12.02-28.5-31.41-28.5h0Z"/>
  </g>
  <polygon class="cls-2" points="403.76 8.58 387.18 8.58 354.99 87.01 372.15 87.01 378.55 70.24 395.42 26.32 412.19 70.24 418.59 87.01 436.14 87.01 403.76 8.58"/>
  <path class="cls-2" d="m111.1,95.59H29.85c-3.98,0-7.17-3.2-7.17-7.17V7.17c0-3.98,3.2-7.17,7.17-7.17h81.25c3.98,0,7.17,3.2,7.17,7.17v81.25c0,3.98-3.2,7.17-7.17,7.17Z"/>
  <g>
    <rect class="cls-1" x="45.46" y="11.83" width="26.37" height="13.38"/>
    <rect class="cls-3" x="45.46" y="40.43" width="37.71" height="13.38"/>
    <rect class="cls-1" x="45.46" y="70.39" width="50.03" height="13.38"/>
  </g>
  <rect class="cls-2" y="45.16" width="22.68" height="5.27"/>
  <rect class="cls-2" x="118.27" y="45.16" width="22.68" height="5.27"/>
</svg>